<svg width="1122" height="109" viewBox="0 0 1122 109" fill="none" xmlns="http://www.w3.org/2000/svg">
<path d="M95.44 22.244C94.672 23.652 93.648 26.34 93.264 27.62C89.808 41.444 81.616 58.852 70.352 72.548C58.96 86.372 43.728 98.02 19.792 106.596L13.904 101.22C35.92 94.948 52.816 83.044 64.72 68.836C75.472 56.164 83.536 38.884 86.48 25.956H36.56L39.632 19.812C44.496 19.812 78.928 19.812 82.896 19.812C86.096 19.812 88.016 19.556 89.68 18.916L95.44 22.244ZM51.92 3.42799C50.256 6.116 48.592 9.572 47.44 11.748C40.656 25.06 28.368 43.492 6.48 57.828L0.848001 53.604C22.736 40.676 36.048 20.836 41.296 9.06C42.192 7.396 43.6 3.42799 44.112 0.867996L51.92 3.42799ZM144.336 99.044C144.976 97.764 145.36 96.228 145.36 94.052C145.36 87.012 145.36 29.54 145.36 18.66C145.36 15.972 144.848 10.468 144.592 8.67599H152.784C152.4 10.724 152.016 15.588 152.016 18.532C152.016 29.412 152.016 90.084 152.016 94.692C178.64 88.292 208.848 71.268 224.592 50.404L228.432 55.908C212.304 76.388 186.064 92.516 153.168 101.476C151.888 101.732 150.48 102.244 148.944 103.012L144.336 99.044ZM306 16.228C306 12.516 305.488 6.49999 305.104 4.70799H313.424C313.168 6.49999 312.784 12.516 312.784 16.228C312.784 23.524 312.784 36.708 312.784 44.132C312.784 72.676 302.032 92.388 277.84 105.956L271.44 101.22C294.096 90.34 306 72.036 306 44.132C306 36.964 306 23.524 306 16.228ZM255.184 34.788C256.976 34.916 261.456 35.3 265.68 35.3C271.44 35.3 344.528 35.3 349.904 35.3C353.232 35.3 357.712 35.044 359.248 34.916V41.828C357.712 41.7 352.976 41.572 349.776 41.572C344.528 41.572 271.44 41.572 265.808 41.572C261.456 41.572 257.104 41.7 255.184 41.828V34.788ZM382.8 58.34C404.432 52.324 424.528 42.98 438.608 34.02C452.176 25.444 463.952 15.332 473.04 4.324L478.544 9.44399C467.92 20.58 455.76 30.692 440.784 40.164C427.088 48.868 406.992 58.084 386.128 64.74L382.8 58.34ZM436.944 37.604L443.728 34.788V93.668C443.728 98.02 443.984 103.396 444.368 105.444H436.304C436.688 103.396 436.944 98.02 436.944 93.668V37.604ZM506.448 69.22C509.264 67.172 511.696 64.868 514.768 61.668C522.064 54.372 533.328 38.884 540.752 29.924C547.28 22.116 553.04 20.58 560.848 28.9C568.016 36.452 577.616 48.74 586.192 57.828C593.616 66.148 607.44 80.74 618.576 90.596L613.328 96.356C603.344 86.884 591.312 73.444 582.224 63.204C573.648 53.732 563.664 41.316 557.776 34.916C551.76 28.26 549.328 29.412 544.592 35.3C537.936 43.364 526.672 58.212 519.504 66.532C517.072 69.476 514.128 72.932 512.336 75.236L506.448 69.22ZM693.072 3.3C692.688 5.476 692.304 11.492 692.304 14.692C692.176 20.324 692.304 30.052 692.304 39.78C692.304 53.604 693.968 78.052 693.968 89.572C693.968 99.428 687.312 107.364 672.848 107.364C655.44 107.364 643.664 101.988 643.664 89.06C643.664 78.564 652.88 69.732 674.256 69.732C698.704 69.732 720.72 82.276 733.776 94.052L729.808 100.324C717.008 87.396 695.632 75.62 673.616 75.62C658.512 75.62 650.064 80.868 650.064 88.804C650.064 96.484 657.616 101.22 671.952 101.22C682.064 101.22 687.568 96.484 687.568 87.396C687.568 77.668 686.032 53.348 686.032 39.78C686.032 32.484 686.032 20.196 685.904 14.692C685.904 11.108 685.52 5.21999 685.008 3.3H693.072ZM688.336 29.796C697.808 29.796 717.776 29.156 731.344 27.364L731.6 33.636C718.16 35.044 698.192 36.068 688.336 36.068V29.796ZM848.72 59.62C848.72 47.332 838.736 39.268 824.912 39.268C809.68 39.268 797.136 43.492 789.072 45.796C784.976 47.076 781.904 48.228 779.216 49.252L776.912 41.316C779.984 41.06 783.696 40.42 787.408 39.652C796.112 37.476 810.704 33.252 825.296 33.252C842.32 33.252 855.376 42.468 855.376 59.876C855.376 87.78 830.8 102.5 799.056 107.62L795.216 101.604C825.936 97.508 848.72 84.196 848.72 59.62ZM792.912 4.196C806.608 7.396 833.616 9.95599 845.52 10.212L844.496 16.612C830.8 15.716 806.096 13.156 791.76 10.596L792.912 4.196ZM913.232 14.564C922.32 15.716 934.096 16.228 946.512 16.228C958.672 16.228 970.576 15.332 979.536 14.436V21.092C970.96 21.604 958.032 22.628 946.512 22.628C933.968 22.628 923.216 22.116 913.232 21.22V14.564ZM915.152 64.74C913.232 69.988 912.208 75.108 912.208 80.1C912.208 90.852 923.344 98.02 945.104 98.02C962.896 98.02 979.536 96.1 988.112 93.028L988.24 99.812C980.304 102.372 963.536 104.42 945.232 104.42C921.04 104.42 905.808 96.612 905.808 81.38C905.808 75.236 907.216 69.348 908.496 63.972L915.152 64.74ZM1044.69 8.42C1047.25 8.67599 1050.06 8.80399 1053.65 8.80399C1059.41 8.80399 1087.18 7.65199 1094.22 6.884C1096.53 6.628 1098.7 6.244 1100.11 5.85999L1104.34 10.468C1103.18 11.236 1100.88 12.9 1099.47 13.924C1089.74 22.116 1067.73 40.676 1056.59 49.508C1077.46 47.204 1101.52 45.284 1121.62 45.284V51.428C1108.94 50.916 1097.04 51.044 1089.36 52.196C1076.56 53.988 1062.86 65.892 1062.86 78.82C1062.86 93.412 1074.64 98.02 1086.54 99.812C1094.35 100.836 1099.73 100.58 1104.21 100.196L1102.8 106.852C1072.46 108.132 1056.72 98.404 1056.72 79.716C1056.72 67.044 1067.22 56.932 1074.9 53.22C1060.05 54.5 1041.23 56.548 1024.46 59.236L1023.82 53.092C1030.86 52.324 1039.44 51.3 1045.84 50.532C1061.2 39.652 1083.6 19.812 1091.79 12.772C1085.9 13.156 1059.54 14.308 1053.9 14.692C1050.45 14.948 1047.12 15.204 1045.07 15.46L1044.69 8.42Z" fill="#FFF8E8"/>
</svg>
